<svg xmlns="http://www.w3.org/2000/svg" xmlns:xlink="http://www.w3.org/1999/xlink" viewBox="0 0 2000 2000"><defs><style>.cls-1{fill:url(#radial-gradient);}.cls-2{fill:#231f20;}.cls-3{font-size:60.46px;fill:#d1d3d4;font-family:SakkalMajalla, Sakkal Majalla;}</style><radialGradient id="radial-gradient" cx="1000" cy="1000" r="1000" gradientUnits="userSpaceOnUse"><stop offset="0" stop-color="#fff"/><stop offset="1" stop-color="#d1d3d4"/></radialGradient></defs><g id="Layer_2" data-name="Layer 2"><g id="Layer_1-2" data-name="Layer 1"><g id="Layer_2-2" data-name="Layer 2"><rect class="cls-1" width="2000" height="2000"/></g><polygon class="cls-2" points="1348.54 433.09 1348.54 1328.4 1186.63 1428.18 1186.63 961.97 1139.81 989.75 1139.81 990.32 813.99 1183.61 813.51 993.43 964.33 903.95 964.33 903.38 1186.63 771.5 1186.63 532.89 1348.54 433.09"/><polygon class="cls-2" points="1139.81 746.23 813.99 939.53 813.54 761.8 754.23 725.72 754.23 1328.39 592.32 1428.18 592.32 433.09 754.23 532.88 963.64 660.27 1139.35 556.03 1139.81 746.23"/><polyline class="cls-2" points="1139.35 1043.18 813.51 1236.49 813.99 1426.67 1139.81 1233.38 1139.81 1233.38 1139.35 1043.18"/><text class="cls-3" transform="translate(1299.83 500.79) rotate(90)">MOHAMED EL HAGRASY</text></g></g></svg>